<?xml version="1.0" standalone="no"?>
<!DOCTYPE svg PUBLIC "-//W3C//DTD SVG 20010904//EN"
 "http://www.w3.org/TR/2001/REC-SVG-20010904/DTD/svg10.dtd">
<svg version="1.0" xmlns="http://www.w3.org/2000/svg"
 width="300.000000pt" height="300.000000pt" viewBox="0 0 300.000000 300.000000"
 preserveAspectRatio="xMidYMid meet">

<g transform="translate(0.000000,300.000000) scale(0.100000,-0.100000)"
fill="#000000" stroke="none">
<path d="M234 2985 c18 -14 19 -19 7 -51 -16 -45 -7 -55 20 -21 23 30 56 36
61 11 2 -9 -16 -55 -39 -102 -23 -48 -43 -99 -43 -114 0 -14 -3 -33 -6 -42 -6
-17 -18 -11 -161 85 l-73 49 0 -53 c0 -49 2 -53 38 -77 20 -13 68 -47 105 -74
65 -47 68 -52 62 -81 -3 -16 -8 -39 -10 -50 -6 -28 -27 -65 -37 -65 -4 0 -8
-5 -8 -12 0 -6 -19 -36 -42 -67 -105 -139 -108 -144 -108 -223 0 -84 -4 -87
100 52 74 99 110 140 123 140 5 0 7 -7 3 -15 -3 -8 -1 -15 4 -15 11 0 18 -67
25 -223 2 -65 9 -126 14 -136 6 -10 15 -43 20 -72 5 -30 15 -72 21 -94 6 -22
15 -55 20 -73 4 -19 15 -41 23 -50 9 -9 19 -30 23 -47 4 -16 12 -37 18 -45 10
-13 -57 32 -197 131 -23 16 -60 41 -82 56 -22 14 -57 39 -77 55 l-38 30 0 -59
0 -59 93 -64 c50 -35 98 -70 106 -78 8 -7 26 -21 40 -30 14 -9 64 -45 111 -81
47 -35 86 -65 87 -65 1 -1 -10 -15 -25 -31 -15 -17 -52 -64 -84 -105 -31 -41
-68 -85 -82 -97 -14 -12 -37 -40 -52 -63 -15 -22 -31 -40 -35 -40 -5 0 -9 -5
-9 -11 0 -6 -34 -50 -75 -98 l-75 -88 0 -96 0 -96 33 -22 c17 -13 34 -26 37
-29 3 -3 48 -35 100 -69 52 -35 96 -67 98 -72 2 -5 8 -9 13 -9 9 0 187 -125
271 -191 26 -21 53 -39 60 -41 9 -3 5 -15 -14 -40 -22 -29 -25 -37 -13 -42 24
-9 17 -27 -15 -39 -17 -6 -30 -17 -30 -25 0 -7 -6 -15 -14 -18 -8 -3 -17 -12
-20 -20 -4 -11 5 -14 38 -14 41 0 46 3 91 61 26 33 49 58 52 56 2 -3 -5 -25
-16 -50 -12 -25 -21 -51 -21 -56 0 -16 347 -15 352 0 3 9 9 9 25 0 23 -12 582
-17 570 -5 -7 7 34 67 82 122 16 19 32 29 35 24 4 -6 1 -14 -5 -17 -5 -4 -8
-13 -5 -21 3 -9 -2 -14 -14 -14 -13 0 -20 -7 -20 -20 0 -11 -6 -23 -14 -26 -8
-3 -13 -16 -12 -30 l1 -24 395 0 c279 1 390 4 377 11 -12 7 -16 17 -12 32 4
12 3 17 -2 12 -10 -13 -64 -17 -81 -7 -17 11 -4 45 14 38 23 -9 16 12 -8 25
-16 9 -23 9 -26 0 -2 -6 -8 -11 -14 -11 -7 0 -7 4 0 13 7 8 5 19 -9 36 -11 13
-22 22 -24 19 -3 -3 -30 19 -61 48 -52 50 -64 58 -80 52 -7 -4 -27 32 -21 38
6 6 168 -109 187 -131 7 -8 17 -15 22 -15 9 0 103 -64 118 -80 3 -3 31 -22 62
-43 54 -35 62 -37 135 -36 l78 0 51 62 c29 34 97 120 153 190 93 118 101 132
101 172 0 40 -2 44 -29 50 -34 7 -51 24 -83 85 -13 25 -31 56 -40 70 -8 14
-18 47 -22 74 -6 46 -5 48 11 34 10 -8 51 -36 91 -61 l72 -47 0 44 c0 48 11
37 -134 140 -30 21 -62 53 -70 70 -8 17 -27 43 -43 58 -27 25 -123 78 -170 92
-60 19 -50 60 17 69 50 6 133 58 148 92 16 34 17 31 -18 44 -35 12 -37 24 -9
52 15 15 30 20 51 17 26 -4 32 0 49 33 10 21 19 48 19 59 0 31 32 87 99 170
50 62 61 82 61 113 0 26 -4 37 -15 37 -8 0 -15 5 -15 10 0 6 -6 10 -12 10 -7
0 -28 9 -46 20 -32 20 -33 22 -19 43 9 13 23 21 33 19 11 -2 -2 10 -27 27 -25
17 -53 39 -61 48 -23 26 -50 135 -58 236 -6 75 -5 96 11 139 14 35 18 63 14
96 -4 26 -8 59 -9 75 -1 15 -6 30 -9 33 -4 4 -4 33 0 65 5 50 2 66 -21 113
l-27 54 30 45 c44 64 55 71 83 55 12 -7 27 -18 33 -24 21 -23 115 -84 115 -75
0 18 -12 41 -21 41 -6 0 -21 7 -35 16 -23 16 -24 18 -8 36 13 14 15 21 6 30
-9 9 -16 7 -31 -6 -20 -18 -20 -18 -14 17 6 42 -12 58 -33 28 -8 -12 -20 -21
-26 -21 -6 0 -3 10 8 22 13 16 14 19 3 10 -19 -14 -69 -9 -79 9 -6 8 -9 8 -14
0 -4 -6 2 -24 14 -40 l20 -30 -34 -26 c-19 -14 -37 -37 -40 -50 -4 -14 -13
-25 -21 -25 -9 0 -20 -11 -25 -24 -11 -31 -69 -107 -124 -166 -24 -25 -51 -60
-60 -77 -9 -18 -21 -33 -26 -33 -6 0 -19 -9 -29 -19 -10 -10 -31 -25 -47 -32
-28 -14 -53 -50 -71 -104 -5 -16 -14 -30 -20 -30 -20 0 -78 -60 -75 -78 2 -9
-1 -18 -7 -18 -37 -5 -69 -19 -75 -34 -3 -8 -1 -15 5 -15 21 0 4 -45 -18 -48
-13 -2 -23 -8 -23 -13 0 -5 -6 -9 -14 -9 -9 0 -12 -7 -9 -20 6 -22 -16 -49
-35 -42 -7 2 -12 -5 -12 -16 0 -10 -3 -22 -7 -26 -5 -4 -8 -12 -8 -17 0 -5 -4
-10 -10 -11 -5 -2 -27 -20 -47 -42 -21 -21 -38 -34 -38 -29 0 8 61 96 90 131
6 6 33 41 59 76 l49 64 -27 7 c-14 4 -36 16 -48 27 -12 11 -32 22 -45 24 -13
2 -53 8 -90 13 -36 5 -71 12 -77 15 -6 4 -20 2 -32 -4 -11 -7 -35 -13 -53 -15
-18 -1 -48 -6 -67 -10 l-34 -7 20 21 c17 20 134 81 154 81 4 0 23 7 41 16 27
14 38 15 70 4 21 -7 52 -11 68 -8 17 2 29 1 26 -4 -3 -4 -1 -8 5 -8 5 0 13 5
16 10 12 20 35 -9 26 -33 -14 -40 26 -58 106 -48 7 0 27 22 45 49 17 26 42 58
55 72 32 35 117 139 187 229 33 42 92 115 132 162 95 114 97 119 78 164 -8 20
-20 34 -27 32 -7 -2 -20 2 -29 11 -22 18 -23 6 -3 -28 8 -14 14 -28 15 -33 0
-10 -55 19 -77 41 -33 33 -94 74 -100 68 -4 -4 -1 -12 5 -18 7 -7 12 -16 12
-21 0 -6 -19 15 -42 45 -38 49 -47 55 -80 55 -32 0 -35 -2 -22 -14 8 -8 14
-21 14 -29 0 -8 4 -14 9 -14 5 0 20 -15 33 -32 20 -29 16 -27 -32 15 -56 48
-76 58 -67 33 9 -22 -3 -26 -28 -10 -18 12 -24 12 -27 2 -6 -16 36 -91 45 -81
4 3 7 1 7 -5 0 -18 -44 -18 -62 1 -23 22 -38 22 -38 0 0 -14 -4 -13 -21 6 -16
17 -24 20 -29 10 -6 -8 -12 2 -20 29 -6 23 -12 42 -14 42 -8 0 7 -85 15 -95
16 -17 9 -26 -11 -15 -11 6 -19 14 -19 18 3 18 -2 32 -11 32 -5 0 -7 -6 -4
-14 3 -8 1 -17 -5 -21 -6 -3 -11 -1 -11 4 0 6 -6 11 -14 11 -16 0 -29 27 -20
42 3 5 -3 12 -15 15 -11 3 -18 9 -15 14 3 5 -5 22 -17 37 -16 19 -20 21 -15 7
17 -45 17 -50 2 -31 -10 13 -16 15 -16 6 0 -10 -4 -9 -18 3 -25 23 -35 21 -23
-2 8 -15 7 -20 -5 -25 -9 -3 -21 -3 -27 1 -7 4 -8 0 -4 -11 4 -10 7 -20 7 -22
0 -3 5 -2 12 2 7 4 8 3 4 -5 -4 -6 -2 -19 5 -27 6 -8 8 -18 4 -22 -4 -4 -10
-2 -12 4 -2 6 -11 20 -19 30 -9 10 -13 13 -9 7 13 -27 -12 -11 -28 17 -18 30
-16 70 4 70 5 0 9 5 9 10 0 18 -38 11 -44 -8 -4 -10 -34 -47 -68 -83 -35 -35
-62 -67 -61 -70 1 -3 -15 -14 -35 -24 -20 -11 -40 -24 -43 -28 -4 -5 -9 -4
-13 1 -8 13 -26 95 -32 142 l-4 35 10 -32 c14 -43 20 -42 15 2 -3 20 0 35 5
35 6 0 10 -5 10 -11 0 -6 7 -4 15 5 8 8 15 20 15 26 0 6 5 8 12 4 7 -4 8 -3 4
4 -4 7 -39 11 -91 11 -75 0 -86 -3 -96 -21 -12 -23 -2 -40 11 -18 5 8 6 -3 3
-30 -7 -53 4 -48 36 14 12 26 27 43 33 40 7 -4 7 -9 0 -13 -6 -3 -13 -18 -17
-32 -5 -19 0 -34 20 -57 15 -18 25 -39 23 -49 -2 -11 -12 -2 -32 30 -17 26
-32 44 -35 42 -2 -3 1 -11 7 -17 18 -18 15 -33 -4 -18 -8 8 -14 9 -13 4 3 -19
-1 -34 -11 -34 -5 0 -7 6 -4 14 3 8 1 17 -5 21 -6 3 -9 0 -5 -8 3 -8 1 -18 -5
-22 -6 -3 -11 -1 -11 6 0 7 -6 4 -14 -7 -8 -10 -18 -16 -22 -11 -4 4 -2 13 4
19 17 17 15 29 -3 22 -8 -4 -17 1 -21 10 -3 9 -10 16 -16 16 -5 0 -7 -4 -3 -9
3 -5 1 -12 -5 -16 -5 -3 -10 -2 -10 3 0 13 -29 24 -41 16 -14 -8 11 -35 25
-27 8 4 8 3 -1 -7 -17 -18 -56 22 -39 41 6 8 7 11 2 7 -14 -11 -46 -10 -46 1
0 5 -10 11 -22 15 -19 5 -21 8 -8 16 13 8 12 10 -5 11 -11 1 -26 1 -32 0 -7
-1 -13 3 -13 9 0 5 -8 10 -17 10 -16 0 -16 2 -3 11 12 8 10 9 -7 4 -12 -3 -24
-1 -28 5 -3 6 -44 10 -96 10 -71 0 -89 -3 -89 -14 0 -8 -5 -18 -12 -22 -8 -5
-9 0 -6 14 6 21 3 22 -85 22 -111 0 -137 -6 -137 -31 0 -10 -8 -23 -18 -28
-10 -5 -24 -21 -31 -35 -8 -14 -17 -23 -22 -21 -4 3 -17 -11 -29 -30 -12 -19
-25 -35 -29 -35 -5 0 -21 -18 -35 -41 -15 -22 -30 -39 -32 -36 -3 3 -17 -6
-31 -19 -27 -25 -46 -26 -22 -1 35 36 199 259 199 269 0 5 -93 8 -207 8 -185
-1 -206 -2 -189 -15z m732 -32 c-10 -10 -19 5 -10 18 6 11 8 11 12 0 2 -7 1
-15 -2 -18z m-63 -28 c32 -17 39 -18 46 -6 7 11 10 8 13 -10 1 -13 8 -24 13
-25 28 -2 40 -17 42 -50 1 -30 -1 -34 -18 -29 -23 8 -24 3 -4 -36 9 -16 21
-27 26 -23 8 4 7 9 -2 15 -10 6 -4 9 17 9 l32 0 -3 -57 c-4 -77 -3 -73 -21
-73 -19 0 -36 -19 -64 -72 -34 -64 -5 -50 47 22 28 38 52 67 55 65 3 -3 13 4
23 15 17 19 19 19 37 3 18 -16 19 -16 12 3 -6 15 -4 17 6 7 9 -8 20 -9 38 -2
15 6 29 6 34 1 15 -15 48 -1 48 20 0 11 5 18 13 15 6 -2 19 0 29 4 11 6 18 4
22 -7 3 -8 12 -14 19 -12 7 2 31 -12 53 -29 23 -18 44 -30 48 -26 3 3 6 2 6
-4 0 -6 -6 -13 -14 -16 -8 -3 -16 -18 -18 -33 -2 -15 -10 -30 -18 -32 -13 -5
-13 -3 -1 14 7 10 -1 4 -19 -15 -25 -27 -29 -36 -19 -43 11 -8 10 -9 -3 -5
-19 7 -48 -22 -48 -47 0 -9 -4 -15 -9 -11 -10 5 -108 -107 -202 -231 -28 -38
-62 -82 -75 -97 l-24 -29 -73 53 c-39 29 -81 61 -93 71 l-21 18 40 80 c22 44
37 83 34 86 -3 4 -12 -6 -19 -22 -7 -16 -15 -31 -19 -34 -3 -3 -13 -18 -22
-35 -31 -57 -32 -58 -58 -45 -13 7 -80 51 -148 98 l-123 86 6 46 c5 41 4 43
-9 26 -8 -11 -15 -26 -15 -33 0 -16 -14 -17 -28 0 -14 17 19 146 49 189 12 18
42 54 66 80 32 35 43 42 43 28 0 -10 -6 -21 -12 -23 -10 -4 -10 -6 0 -6 7 -1
18 10 24 24 6 13 19 27 30 30 24 8 23 25 -3 25 -11 0 -18 4 -14 10 4 6 15 6
32 -1 19 -7 28 -6 33 2 6 8 13 8 29 0 18 -10 21 -9 21 6 0 11 3 14 8 7 4 -6
18 -14 32 -18 22 -6 23 -5 9 6 -24 19 -27 40 -10 59 14 17 16 17 41 -1 33 -24
80 -36 80 -21 0 6 -11 11 -25 11 -14 0 -30 9 -37 20 -7 11 -18 20 -25 20 -7 0
-13 7 -13 17 0 14 2 14 18 2 9 -8 34 -24 55 -34z m34 13 c-3 -8 -6 -5 -6 6 -1
11 2 17 5 13 3 -3 4 -12 1 -19z m1023 -18 c6 -11 8 -20 6 -20 -3 0 -10 9 -16
20 -6 11 -8 20 -6 20 3 0 10 -9 16 -20z m-936 4 c17 -7 22 -29 7 -38 -4 -3
-13 6 -19 19 -12 27 -12 28 12 19z m819 -146 c0 -27 4 -48 8 -48 5 0 9 -6 9
-14 0 -9 8 -12 24 -9 28 6 110 -62 102 -84 -7 -18 1 -16 37 9 l32 22 -21 -25
c-12 -13 -19 -30 -16 -38 3 -8 0 -11 -7 -7 -6 4 -1 -10 11 -30 12 -21 17 -34
10 -30 -18 11 -15 -19 3 -34 8 -7 12 -16 9 -21 -3 -5 0 -9 5 -9 6 0 11 -7 11
-15 0 -18 -12 -19 -29 -2 -11 10 -12 8 -6 -10 5 -18 3 -22 -10 -17 -9 4 -14
12 -11 19 7 18 -25 45 -49 41 -12 -2 -24 5 -30 18 -6 12 -19 20 -28 20 -9 -1
-15 2 -12 6 3 5 -43 41 -101 82 -58 40 -112 79 -119 86 -8 6 -18 12 -24 12
-14 0 -14 17 0 26 6 3 31 34 55 67 42 57 84 82 84 50 0 -7 5 -13 10 -13 13 0
13 36 -1 62 -8 16 -8 22 2 29 18 11 52 -82 52 -143z m1047 82 c0 -5 -4 -10
-10 -10 -5 0 -10 5 -10 10 0 6 5 10 10 10 6 0 10 -4 10 -10z m-2440 -24 c0 -2
-7 -7 -16 -10 -8 -3 -12 -2 -9 4 6 10 25 14 25 6z m1430 -28 c0 -5 -4 -8 -10
-8 -5 0 -10 10 -10 23 0 18 2 19 10 7 5 -8 10 -18 10 -22z m-700 18 c0 -3 -4
-8 -10 -11 -5 -3 -10 -1 -10 4 0 6 5 11 10 11 6 0 10 -2 10 -4z m200 -6 c0 -5
-4 -10 -10 -10 -5 0 -10 5 -10 10 0 6 5 10 10 10 6 0 10 -4 10 -10z m-155 -20
c3 -5 1 -10 -4 -10 -6 0 -11 5 -11 10 0 6 2 10 4 10 3 0 8 -4 11 -10z m312
-10 c15 -20 7 -30 -23 -30 -13 0 -24 -4 -24 -9 0 -12 41 -11 58 2 9 7 12 3 13
-14 0 -21 1 -22 8 -5 7 19 8 19 15 1 12 -31 -9 -40 -51 -21 -74 34 -84 40 -79
53 3 7 0 13 -7 13 -7 1 -1 7 13 15 31 17 61 15 77 -5z m617 -66 c5 -14 4 -15
-9 -4 -17 14 -19 20 -6 20 5 0 12 -7 15 -16z m-549 -34 c-3 -5 -11 -10 -16
-10 -6 0 -7 5 -4 10 3 6 11 10 16 10 6 0 7 -4 4 -10z m22 -85 c40 -41 35 -45
-11 -10 -61 47 -48 25 28 -46 42 -40 75 -77 73 -83 -2 -6 7 -22 20 -36 28 -31
28 -29 -1 -69 -20 -27 -88 -81 -225 -179 -72 -50 -85 -66 -136 -163 -5 -11
-15 -17 -22 -15 -8 3 -10 -1 -6 -11 4 -9 2 -14 -3 -11 -5 3 -10 -12 -11 -34 0
-22 -4 -42 -7 -45 -4 -5 -58 30 -191 121 -16 12 -32 22 -34 23 -2 1 9 18 25
37 31 37 63 79 148 195 55 74 176 218 254 300 23 25 42 49 42 53 0 18 25 6 57
-27z m-147 11 c0 -2 -7 -7 -16 -10 -8 -3 -12 -2 -9 4 6 10 25 14 25 6z m602
-71 c-2 -14 -9 -25 -14 -25 -6 0 -7 7 -4 16 3 9 6 20 6 25 0 5 4 9 9 9 4 0 6
-11 3 -25z m-92 -125 c0 -5 -5 -10 -11 -10 -5 0 -7 5 -4 10 3 6 8 10 11 10 2
0 4 -4 4 -10z m65 -10 c-3 -5 2 -10 11 -10 16 0 16 -1 -2 -14 -10 -8 -21 -10
-22 -5 -5 12 5 39 13 39 4 0 3 -4 0 -10z m-1590 -30 c3 -5 1 -10 -4 -10 -6 0
-11 5 -11 10 0 6 2 10 4 10 3 0 8 -4 11 -10z m1643 -15 c-3 -3 -9 2 -12 12 -6
14 -5 15 5 6 7 -7 10 -15 7 -18z m-1643 -47 c-4 -59 -4 -60 -16 -53 -6 4 -8
23 -5 44 3 20 5 39 6 44 0 4 4 7 9 7 5 0 8 -19 6 -42z m145 -35 c36 -26 76
-55 90 -64 14 -9 37 -28 50 -43 14 -14 31 -26 39 -26 21 0 50 -30 45 -45 -4
-8 -15 -10 -37 -5 -25 5 -31 11 -30 28 2 12 -1 22 -7 22 -14 0 -25 -23 -21
-45 2 -16 0 -17 -10 -8 -9 9 -16 7 -31 -13 -11 -13 -28 -24 -39 -24 -11 0 -33
-7 -49 -15 -17 -9 -42 -13 -59 -10 -23 4 -32 0 -45 -20 -9 -13 -16 -30 -16
-37 0 -7 -9 -19 -20 -26 -17 -10 -21 -10 -26 3 -4 8 -4 24 -1 35 3 11 1 37 -4
57 -6 28 -5 41 5 48 13 10 38 104 36 140 0 11 2 44 6 72 l5 53 27 -14 c15 -8
56 -36 92 -63z m1778 47 c-12 -19 -28 -27 -28 -14 0 6 30 33 38 34 1 0 -3 -9
-10 -20z m-268 -4 c0 -2 -8 -10 -17 -17 -16 -13 -17 -12 -4 4 13 16 21 21 21
13z m156 -132 c-9 -9 -20 -14 -23 -10 -4 3 2 13 13 20 25 18 31 12 10 -10z
m144 -30 c0 -2 -9 0 -20 6 -11 6 -20 13 -20 16 0 2 9 0 20 -6 11 -6 20 -13 20
-16z m-56 -18 c-3 -9 -10 -13 -16 -10 -5 3 -4 12 3 20 15 18 22 13 13 -10z
m96 -8 c0 -6 -6 -5 -15 2 -8 7 -15 14 -15 16 0 2 7 1 15 -2 8 -4 15 -11 15
-16z m-30 -15 c0 -9 6 -13 15 -9 17 6 19 -3 5 -24 -9 -13 -12 -13 -21 3 -5 9
-16 17 -23 17 -14 0 -28 24 -20 33 10 10 44 -6 44 -20z m-405 -1 c-3 -3 -11 0
-18 7 -9 10 -8 11 6 5 10 -3 15 -9 12 -12z m175 -22 c0 -5 -4 -10 -10 -10 -5
0 -10 5 -10 10 0 6 5 10 10 10 6 0 10 -4 10 -10z m315 0 c3 -5 1 -10 -4 -10
-6 0 -11 5 -11 10 0 6 2 10 4 10 3 0 8 -4 11 -10z m40 -30 c4 -6 1 -9 -6 -8
-6 2 -14 -3 -16 -9 -3 -8 4 -13 16 -13 12 0 21 -4 21 -10 0 -12 -30 -13 -49
-1 -10 7 -11 13 -2 30 13 23 26 27 36 11z m-691 -11 c-5 -8 -1 -8 14 0 27 14
32 14 32 -4 0 -7 8 -19 18 -24 13 -8 14 -10 2 -11 -8 0 -26 -10 -40 -22 -22
-21 -32 -22 -90 -17 -36 3 -59 6 -51 7 7 1 11 8 7 17 -3 10 1 18 12 22 9 4 20
10 23 15 3 4 17 9 32 10 15 1 27 6 27 10 0 4 5 8 11 8 5 0 7 -5 3 -11z m346
-20 c-7 -11 -14 -18 -17 -15 -3 3 0 12 7 21 18 21 23 19 10 -6z m290 11 c0 -5
-2 -10 -4 -10 -3 0 -8 5 -11 10 -3 6 -1 10 4 10 6 0 11 -4 11 -10z m169 -72
c12 -34 7 -48 -16 -48 -12 0 -13 3 -3 15 10 12 6 16 -22 24 -18 5 -27 10 -20
10 20 2 14 21 -7 21 -13 0 -18 7 -18 23 l0 23 38 -19 c24 -12 41 -29 48 -49z
m-2094 12 c-3 -5 -16 -10 -28 -10 -18 0 -19 2 -7 10 20 13 43 13 35 0z m1355
-10 c-19 -13 -30 -13 -30 0 0 6 10 10 23 10 18 0 19 -2 7 -10z m458 -47 c51
-65 82 -203 76 -329 -4 -68 -13 -84 -29 -53 -11 19 -10 25 3 35 12 9 10 11
-14 9 -16 -1 -47 -6 -68 -10 l-40 -8 28 -23 c15 -13 26 -24 24 -25 -2 -1 -17
-2 -35 -3 -18 -1 -35 -5 -38 -8 -4 -4 -14 -4 -23 -1 -9 4 -13 2 -9 -5 7 -11
-42 -52 -63 -52 -9 0 -60 -47 -60 -56 0 -2 7 -1 16 3 12 4 15 2 12 -8 -3 -8
-11 -13 -18 -11 -7 1 -19 -5 -27 -15 -8 -10 -11 -12 -7 -4 5 10 1 11 -15 6
-15 -5 -48 12 -133 69 -133 90 -148 101 -148 111 0 4 26 38 58 75 39 47 62 67
74 64 10 -3 21 3 27 15 11 19 41 19 66 1 23 -17 61 12 56 43 -1 6 122 12 177
7 28 -2 55 18 45 34 -12 18 -13 89 -2 102 5 6 9 16 8 20 -5 27 3 54 15 54 8 0
28 -17 44 -37z m-1721 -26 c1 -36 -1 -40 -43 -57 -24 -11 -44 -24 -44 -30 0
-5 -4 -10 -10 -10 -19 0 -45 -35 -44 -58 1 -12 -2 -25 -7 -27 -8 -5 -4 -43 5
-53 3 -2 26 -5 51 -6 29 0 45 -5 45 -13 0 -18 10 -16 27 5 8 9 11 11 7 3 -4
-7 -7 -23 -8 -33 -1 -22 -135 -187 -152 -187 -6 -1 -19 8 -30 20 -16 18 -19
39 -20 178 -2 175 2 211 22 211 8 0 11 6 8 15 -4 11 3 19 25 26 17 6 31 17 31
24 0 14 27 28 39 20 4 -2 21 0 37 5 48 14 59 9 61 -33z m538 -57 c21 -22 33
-42 30 -51 -4 -8 -33 -33 -67 -57 -55 -39 -64 -52 -105 -140 -29 -62 -52 -131
-64 -192 -11 -52 -22 -104 -25 -115 -4 -13 -3 -16 3 -10 14 14 41 92 49 140 9
58 59 171 94 215 31 40 101 80 137 80 11 0 26 -7 33 -15 16 -19 21 -85 10
-125 -6 -21 -6 -39 1 -51 7 -15 6 -17 -6 -13 -8 4 -15 3 -15 0 0 -4 11 -11 25
-16 25 -10 30 -26 26 -84 -3 -30 -5 -34 -62 -94 -24 -26 -53 -44 -93 -56 -54
-17 -61 -17 -91 -3 -18 9 -40 14 -50 13 -21 -3 -35 -25 -28 -43 7 -18 -14 -17
-24 1 -5 9 -8 -5 -8 -34 0 -77 -12 -80 -97 -26 -63 41 -146 98 -228 158 -24
17 -24 18 -6 55 37 80 122 213 133 208 6 -2 17 3 23 11 7 8 19 14 26 14 8 0
14 3 14 8 0 4 14 13 31 21 23 10 28 16 18 22 -8 5 -15 4 -17 0 -3 -10 -42 -2
-42 8 0 3 14 22 30 41 30 35 30 35 48 15 13 -16 24 -19 47 -14 17 4 24 7 18 8
-28 2 -11 21 19 21 30 0 31 0 13 20 -26 28 -13 34 19 9 36 -28 42 -19 22 34
-19 49 -21 77 -5 77 5 0 9 8 8 18 -1 9 -1 23 0 30 2 19 113 -44 156 -88z
m1525 75 c0 -8 -7 -15 -15 -15 -16 0 -20 12 -8 23 11 12 23 8 23 -8z m-2260
-4 c0 -5 -7 -14 -15 -21 -13 -10 -15 -9 -15 9 0 12 6 21 15 21 8 0 15 -4 15
-9z m2318 -6 c6 0 12 -3 12 -7 0 -5 0 -12 0 -16 0 -5 -11 -14 -25 -20 -24 -11
-36 0 -15 13 17 10 11 28 -6 21 -14 -6 -15 -4 -4 9 7 9 16 12 19 8 3 -4 12 -8
19 -8z m-1073 -25 c3 -5 1 -10 -4 -10 -6 0 -11 5 -11 10 0 6 2 10 4 10 3 0 8
-4 11 -10z m1123 -12 c-2 -7 3 -12 10 -10 20 4 13 -17 -10 -29 -21 -11 -22
-11 -9 4 7 10 9 17 3 17 -5 0 -12 7 -16 15 -3 9 0 15 9 15 8 0 14 -6 13 -12z
m-948 -87 c0 -5 -13 -20 -28 -33 -15 -12 -42 -43 -59 -68 -58 -85 -59 -85
-131 -37 -51 35 -61 46 -59 67 3 40 43 61 102 54 37 -4 55 -1 70 10 21 17 105
22 105 7z m990 -31 c18 -1 60 -34 60 -48 0 -6 6 -12 13 -15 9 -3 9 -7 0 -19
-7 -8 -11 -17 -8 -19 2 -3 -8 -19 -24 -36 -21 -23 -26 -34 -17 -43 8 -8 5 -12
-12 -17 -14 -3 -21 -11 -18 -19 3 -7 1 -16 -4 -19 -6 -4 -10 -1 -10 6 0 7 -10
2 -22 -11 -13 -14 -22 -28 -20 -32 1 -5 -4 -8 -12 -8 -14 0 -66 -68 -66 -87 0
-6 -9 -13 -20 -16 -11 -3 -24 -17 -30 -31 -9 -23 -13 -25 -31 -16 -11 7 -23 9
-27 6 -3 -3 0 -6 6 -6 22 0 13 -40 -10 -50 -13 -5 -20 -9 -16 -9 14 -2 -44
-51 -59 -51 -14 0 -14 2 3 15 11 8 14 15 6 15 -6 0 6 16 28 36 22 20 38 39 36
42 -8 8 14 42 27 42 7 0 37 32 67 71 30 39 73 91 95 116 37 43 40 49 39 107 0
33 -4 75 -8 91 -6 24 -5 28 5 18 7 -7 20 -13 29 -13z m-2190 -42 c20 -25 17
-38 -8 -38 -12 0 -17 8 -17 30 0 36 2 36 25 8z m2094 -134 c3 -8 2 -12 -4 -9
-6 3 -10 10 -10 16 0 14 7 11 14 -7z m-364 -38 c0 -3 -4 -8 -10 -11 -5 -3 -10
-1 -10 4 0 6 5 11 10 11 6 0 10 -2 10 -4z m-822 -37 c17 -7 32 -18 32 -24 0
-5 -18 -30 -40 -55 -35 -40 -39 -42 -36 -20 2 14 -1 35 -5 48 -7 17 -6 21 3
16 6 -4 2 9 -10 28 l-23 36 23 -7 c13 -4 38 -14 56 -22z m1000 -35 c4 -46 -12
-36 -23 15 -6 26 -4 32 6 29 8 -3 15 -22 17 -44z m-825 -23 c-2 -6 4 -11 13
-11 17 0 97 -59 121 -88 7 -8 9 -20 5 -26 -13 -21 -10 -36 7 -46 10 -5 26 -21
35 -34 19 -30 20 -27 -61 -152 -54 -83 -112 -144 -137 -144 -7 0 -16 -6 -19
-14 -4 -9 -23 -16 -49 -18 -35 -2 -48 2 -67 21 -20 21 -26 23 -43 12 -11 -7
-23 -10 -26 -7 -3 3 0 6 6 6 22 0 12 16 -20 34 -18 9 -25 14 -14 11 10 -3 26
0 34 7 13 10 14 10 8 0 -6 -10 -2 -10 20 0 21 10 24 14 11 16 -24 5 -21 17 10
42 15 12 35 33 45 48 15 23 16 29 3 48 -7 11 -17 39 -21 60 -4 21 -13 44 -21
49 -10 8 -8 18 15 51 66 99 155 182 145 135z m957 -95 c0 -2 -7 -9 -15 -16
-13 -11 -14 -10 -9 4 5 14 24 23 24 12z m-165 -65 c3 -5 1 -12 -5 -16 -5 -3
-10 1 -10 9 0 18 6 21 15 7z m-2071 -132 c4 -36 3 -58 -2 -51 -7 10 -11 10
-22 -2 -7 -9 -16 -14 -20 -11 -12 7 -7 -59 5 -68 6 -5 0 -5 -12 -2 -14 4 -23
2 -23 -4 0 -6 7 -11 15 -11 8 0 15 -5 15 -11 0 -5 -4 -7 -10 -4 -5 3 -10 -1
-10 -9 0 -8 5 -18 10 -21 6 -4 9 -1 8 5 -4 15 56 51 68 41 10 -7 40 -72 80
-176 14 -38 42 -103 60 -143 19 -41 34 -78 34 -84 0 -5 -10 -24 -22 -40 -32
-45 -32 -184 -1 -248 31 -61 15 -72 -39 -28 -24 19 -106 79 -183 133 -110 77
-383 274 -404 291 -2 2 23 33 55 70 32 37 77 90 98 118 22 28 79 97 128 154
49 56 103 123 120 148 37 55 44 48 52 -47z m239 -4 c42 -27 77 -54 77 -59 0
-4 -12 0 -27 10 -16 10 -41 25 -58 34 -42 22 -124 83 -125 93 0 9 4 7 133 -78z
m1957 55 c0 -13 -7 -20 -20 -20 -25 0 -26 16 -2 29 23 14 22 14 22 -9z m-140
-10 c0 -5 -5 -10 -11 -10 -5 0 -7 5 -4 10 3 6 8 10 11 10 2 0 4 -4 4 -10z
m-30 -45 c0 -11 -35 -60 -47 -68 -7 -4 -13 -15 -13 -23 0 -13 -60 -48 -68 -40
-5 6 33 66 41 66 5 0 20 9 34 20 14 11 22 20 18 20 -4 0 -2 7 5 15 12 15 30
20 30 10z m-1297 -64 c12 -14 31 -28 42 -29 11 -2 22 -6 24 -8 5 -4 -79 -104
-87 -104 -4 0 -46 30 -95 66 -77 57 -86 67 -77 84 12 22 25 26 35 10 9 -14 57
-12 78 4 23 18 52 10 80 -23z m-514 -31 c5 0 46 -25 91 -56 l81 -56 -8 -67
c-4 -36 -8 -91 -8 -123 0 -51 -2 -55 -18 -46 -23 12 -23 12 -32 -38 -4 -26 -2
-44 4 -49 6 -3 11 -1 11 6 0 7 3 9 7 6 3 -4 12 -2 19 4 14 11 15 7 28 -69 5
-27 -1 -43 -25 -79 l-31 -45 -15 33 c-8 19 -19 41 -24 49 -5 8 -14 26 -20 40
-5 14 -17 38 -25 54 -8 16 -14 34 -14 41 0 7 -7 25 -15 42 -8 16 -16 50 -18
75 -1 26 -7 51 -11 55 -5 5 -6 2 -1 -6 5 -9 4 -12 -2 -8 -11 7 -24 56 -25 94
0 13 -4 21 -9 18 -16 -11 -32 122 -16 142 7 10 15 9 38 -2 15 -8 32 -15 38
-15z m704 -47 c-7 -2 -13 -9 -13 -14 0 -6 6 -7 16 -1 28 15 54 3 54 -26 0 -14
-3 -22 -7 -19 -3 4 -12 2 -19 -4 -7 -6 -26 -12 -43 -14 -16 -2 -41 -11 -55
-20 -14 -9 -31 -15 -38 -13 -14 5 88 118 106 117 7 0 6 -3 -1 -6z m79 -15 c-7
-7 -12 -8 -12 -2 0 14 12 26 19 19 2 -3 -1 -11 -7 -17z m908 -2 c0 -3 -4 -8
-10 -11 -5 -3 -10 -1 -10 4 0 6 5 11 10 11 6 0 10 -2 10 -4z m-1387 -42 c3 -3
2 -16 -3 -29 -6 -17 -5 -27 6 -35 19 -17 18 -30 -8 -57 -26 -28 -44 -29 -58
-4 -18 34 -12 69 15 87 24 16 37 43 13 28 -7 -4 -8 -3 -4 4 8 13 29 16 39 6z
m60 -49 c0 -6 -7 -11 -16 -13 -12 -3 -15 1 -11 13 7 17 25 17 27 0z m1202 -35
c-3 -5 -11 -10 -16 -10 -6 0 -7 5 -4 10 3 6 11 10 16 10 6 0 7 -4 4 -10z m-45
-60 c0 -5 -4 -10 -10 -10 -5 0 -10 5 -10 10 0 6 5 10 10 10 6 0 10 -4 10 -10z
m-664 -24 c18 -18 18 -26 0 -26 -7 0 -16 9 -19 20 -6 24 -1 25 19 6z m-54 -18
c-5 -21 -4 -22 13 -8 16 13 18 13 13 0 -7 -22 -47 -24 -69 -4 -23 21 -16 34
21 34 24 0 27 -3 22 -22z m-472 -40 c-44 -62 -89 -112 -95 -106 -3 3 -1 25 4
49 10 42 55 94 72 83 4 -2 10 0 14 6 3 5 13 10 21 10 11 0 7 -12 -16 -42z
m200 22 c0 -4 16 -8 35 -8 43 0 92 -29 77 -44 -8 -8 -8 -17 -1 -30 5 -10 8
-18 7 -19 -2 -1 -30 -2 -63 -4 -33 -2 -64 -4 -70 -5 -31 -7 -125 1 -125 11 0
6 20 35 45 64 37 43 50 51 70 47 14 -2 25 -8 25 -12z m926 -39 c-32 -32 -34
-11 -4 32 19 27 23 29 26 13 2 -10 -7 -30 -22 -45z m-66 -92 c0 -5 -10 -14
-23 -20 -13 -6 -24 -16 -24 -23 0 -6 -8 -24 -18 -39 -13 -21 -21 -25 -29 -16
-8 8 -8 13 2 16 6 3 12 9 12 14 0 17 62 89 71 83 5 -3 9 -10 9 -15z m-1020
-44 c0 -7 -6 -15 -12 -18 -19 -6 25 -7 238 -7 174 0 192 -2 208 -19 16 -17 15
-20 -11 -47 -16 -16 -42 -37 -58 -46 -54 -30 -72 -68 -74 -157 -1 -28 -4 -33
-21 -28 -11 3 -39 -4 -61 -15 -29 -14 -54 -18 -83 -15 -153 19 -222 76 -240
200 -8 51 4 76 67 144 30 32 47 35 47 8z m916 -81 c-3 -9 -6 -19 -6 -24 0 -4
-9 -10 -20 -13 -24 -6 -25 -3 -4 28 18 28 40 34 30 9z m-96 -69 c7 -8 9 -15 6
-15 -4 0 -2 -10 5 -22 10 -18 9 -20 -6 -15 -9 4 -19 7 -21 7 -3 0 -2 5 1 10 3
6 3 15 -1 21 -4 8 -9 7 -15 -2 -4 -7 -11 -10 -15 -6 -7 7 13 37 26 37 4 0 13
-7 20 -15z m-970 -47 c0 -17 -3 -18 -14 -8 -8 6 -12 18 -9 26 7 19 23 7 23
-18z m916 -82 c-1 -32 -2 -33 -19 -19 -16 15 -16 17 -1 35 10 10 18 18 19 18
1 0 1 -15 1 -34z m-1106 4 c0 -5 -4 -10 -10 -10 -5 0 -10 5 -10 10 0 6 5 10
10 10 6 0 10 -4 10 -10z m1047 -93 c-21 -45 -57 -65 -57 -33 0 16 68 92 75 84
3 -2 -5 -25 -18 -51z m351 31 c-2 -6 -10 -14 -16 -16 -7 -2 -10 2 -6 12 7 18
28 22 22 4z m-313 -27 c-3 -6 -11 -11 -17 -11 -6 0 -6 6 2 15 14 17 26 13 15
-4z m415 -76 c-7 -8 -17 -12 -23 -8 -6 4 -3 9 9 14 27 11 28 11 14 -6z m-490
-10 c-7 -8 -17 -15 -22 -15 -6 0 -5 7 2 15 7 8 17 15 22 15 6 0 5 -7 -2 -15z
m-784 -76 c19 -22 19 -22 -3 -10 -13 6 -23 16 -23 21 0 15 5 12 26 -11z"/>
<path d="M820 2901 c0 -5 16 -19 36 -32 24 -14 32 -24 24 -29 -7 -4 -10 -14
-8 -21 3 -10 8 -8 16 7 9 17 8 25 -8 40 -43 43 -60 53 -60 35z"/>
<path d="M1894 2685 c4 -11 10 -32 13 -47 3 -15 12 -33 20 -39 10 -9 8 4 -7
42 -20 51 -42 88 -26 44z"/>
<path d="M1980 2511 c0 -6 4 -13 10 -16 6 -3 7 1 4 9 -7 18 -14 21 -14 7z"/>
<path d="M1791 2022 c-9 -17 -7 -19 15 -14 14 2 22 8 17 11 -4 3 -11 10 -15
14 -3 5 -11 0 -17 -11z"/>
<path d="M410 1070 c0 -5 5 -10 10 -10 6 0 10 5 10 10 0 6 -4 10 -10 10 -5 0
-10 -4 -10 -10z"/>
<path d="M505 990 c3 -5 -3 -10 -15 -10 -12 0 -18 -5 -15 -10 4 -6 11 -8 16
-5 5 3 6 -2 2 -12 -4 -12 -3 -15 4 -8 17 16 26 55 13 55 -6 0 -8 -4 -5 -10z"/>
<path d="M1269 2983 c13 -10 37 -30 55 -45 27 -22 34 -24 49 -13 9 7 17 25 17
42 l0 29 -72 2 c-71 2 -72 2 -49 -15z m71 3 c0 -3 -4 -8 -10 -11 -5 -3 -10 -1
-10 4 0 6 5 11 10 11 6 0 10 -2 10 -4z m28 -31 c-6 -14 -13 -23 -15 -21 -5 5
15 46 22 46 3 0 -1 -11 -7 -25z"/>
<path d="M1410 2984 c0 -8 5 -12 10 -9 6 3 10 10 10 16 0 5 -4 9 -10 9 -5 0
-10 -7 -10 -16z"/>
<path d="M1700 2990 c0 -5 5 -10 10 -10 6 0 10 5 10 10 0 6 -4 10 -10 10 -5 0
-10 -4 -10 -10z"/>
<path d="M1996 2985 c4 -8 12 -15 20 -15 8 0 14 -6 14 -12 0 -9 4 -8 10 2 17
27 11 40 -20 40 -22 0 -28 -4 -24 -15z"/>
<path d="M2520 2981 c12 -23 29 -35 36 -28 10 9 -16 47 -32 47 -11 0 -12 -4
-4 -19z"/>
<path d="M2560 2991 c0 -5 5 -13 10 -16 6 -3 10 -2 10 4 0 5 -4 13 -10 16 -5
3 -10 2 -10 -4z"/>
<path d="M2907 2964 c-27 -25 -36 -41 -32 -52 5 -14 14 -9 46 27 61 68 51 85
-14 25z"/>
<path d="M2605 2970 c3 -5 8 -10 11 -10 2 0 4 5 4 10 0 6 -5 10 -11 10 -5 0
-7 -4 -4 -10z"/>
<path d="M2655 2941 c-3 -5 5 -13 17 -17 13 -4 25 -10 28 -14 3 -4 15 -10 28
-14 36 -12 25 9 -13 24 -19 8 -35 17 -35 22 0 11 -17 10 -25 -1z"/>
<path d="M1420 2919 c0 -5 5 -7 10 -4 6 3 10 8 10 11 0 2 -4 4 -10 4 -5 0 -10
-5 -10 -11z"/>
<path d="M2197 2911 c3 -12 9 -21 14 -21 14 0 11 16 -5 29 -12 10 -13 8 -9 -8z"/>
<path d="M1380 2912 c0 -5 7 -9 15 -9 8 0 15 4 15 9 0 4 -7 8 -15 8 -8 0 -15
-4 -15 -8z"/>
<path d="M1601 2888 c0 -9 -6 -18 -12 -20 -6 -2 -9 -17 -7 -33 l3 -30 13 23
c7 13 11 35 9 50 -2 15 -5 20 -6 10z"/>
<path d="M2440 2450 c0 -5 5 -10 11 -10 5 0 7 5 4 10 -3 6 -8 10 -11 10 -2 0
-4 -4 -4 -10z"/>
<path d="M2938 1803 c-10 -2 -18 -12 -18 -20 0 -14 3 -14 20 2 17 15 26 28 18
24 -2 -1 -11 -3 -20 -6z"/>
<path d="M180 1500 c8 -5 22 -9 30 -9 10 0 8 3 -5 9 -27 12 -43 12 -25 0z"/>
<path d="M158 1431 c12 -11 22 -24 22 -30 0 -6 9 -2 20 9 23 23 27 39 6 21
-15 -13 -49 -4 -40 10 3 5 -3 9 -13 9 -16 -1 -15 -3 5 -19z"/>
<path d="M205 1390 c-3 -5 -1 -10 4 -10 6 0 11 5 11 10 0 6 -2 10 -4 10 -3 0
-8 -4 -11 -10z"/>
<path d="M2973 241 c-13 -11 -23 -24 -23 -30 0 -5 -8 -16 -19 -23 -10 -7 -20
-22 -22 -33 -3 -15 -31 -37 -67 -51 -1 -1 -5 -12 -7 -25 -3 -13 -12 -29 -20
-35 -8 -6 -15 -19 -15 -28 0 -14 14 -16 100 -16 l100 0 0 130 c0 72 -1 130 -2
130 -2 -1 -13 -9 -25 -19z"/>
<path d="M2758 3 c7 -3 16 -2 19 1 4 3 -2 6 -13 5 -11 0 -14 -3 -6 -6z"/>
</g>
</svg>
